<?xml version="1.0" standalone="no"?>
<!DOCTYPE svg PUBLIC "-//W3C//DTD SVG 20010904//EN"
 "http://www.w3.org/TR/2001/REC-SVG-20010904/DTD/svg10.dtd">
<svg version="1.0" xmlns="http://www.w3.org/2000/svg"
 width="134.000000pt" height="40.000000pt" viewBox="0 0 134.000000 40.000000"
 preserveAspectRatio="xMidYMid meet">
<metadata>
Created by potrace 1.10, written by Peter Selinger 2001-2011
</metadata>
<g transform="translate(0.000000,40.000000) scale(0.100000,-0.100000)"
fill="#000000" stroke="none">
<path d="M142 303 c-39 -19 -62 -59 -62 -109 0 -55 53 -104 112 -104 61 0 104
29 119 80 11 35 10 46 -4 75 -19 40 -70 75 -107 75 -14 0 -40 -8 -58 -17z
m124 -34 c31 -29 39 -71 20 -108 -20 -38 -44 -51 -91 -51 -69 0 -117 79 -85
140 27 51 111 61 156 19z"/>
<path d="M147 232 l-27 -28 35 -34 c24 -23 35 -29 35 -19 0 9 -9 24 -20 34
l-20 18 20 22 c11 12 20 24 20 28 0 14 -17 6 -43 -21z"/>
<path d="M206 248 c4 -7 14 -21 22 -31 14 -16 13 -20 -7 -41 -12 -13 -18 -26
-13 -30 5 -3 22 8 37 24 l29 30 -29 30 c-29 30 -52 41 -39 18z"/>
<path d="M360 192 l0 -88 57 1 c45 0 57 4 59 18 2 13 -5 17 -32 17 l-34 0 0
70 c0 68 -1 70 -25 70 -25 0 -25 -1 -25 -88z"/>
<path d="M500 193 l0 -88 52 0 c41 0 52 3 54 18 2 13 -5 17 -27 17 -23 0 -29
4 -29 21 0 17 5 20 25 17 19 -4 25 -1 25 13 0 14 -7 19 -25 19 -16 0 -25 6
-25 15 0 10 10 15 29 15 22 0 29 4 27 18 -2 13 -14 18 -54 20 l-52 3 0 -88z"/>
<path d="M655 255 c-27 -26 -34 -80 -14 -116 14 -28 56 -41 102 -34 l38 7 -3
46 c-3 45 -4 46 -38 46 -25 0 -36 -5 -38 -17 -2 -12 3 -17 18 -17 28 0 21 -24
-8 -28 -31 -5 -50 38 -33 74 10 22 17 26 46 22 24 -3 36 1 40 11 15 38 -74 43
-110 6z"/>
<path d="M846 268 c-12 -38 -45 -135 -51 -150 -6 -15 -2 -18 20 -18 18 0 29 6
32 20 7 28 59 28 66 0 3 -14 14 -20 32 -20 17 0 25 4 22 13 -3 6 -17 47 -32
90 -25 73 -28 77 -56 77 -16 0 -31 -6 -33 -12z m44 -47 c0 -11 3 -26 6 -35 4
-12 0 -16 -16 -16 -18 0 -21 4 -16 23 3 12 6 28 6 35 0 6 5 12 10 12 6 0 10
-9 10 -19z"/>
<path d="M970 260 c0 -15 7 -20 26 -20 25 0 25 -1 23 -67 -2 -63 -1 -68 19
-71 21 -3 22 0 22 67 0 64 2 71 20 71 13 0 20 7 20 20 0 18 -7 20 -65 20 -58
0 -65 -2 -65 -20z"/>
<path d="M1149 261 c-32 -26 -35 -115 -4 -137 74 -54 158 0 141 91 -12 61 -87
87 -137 46z m87 -45 c8 -33 2 -57 -18 -69 -33 -21 -60 29 -42 77 10 26 53 20
60 -8z"/>
</g>
</svg>
